<svg class="svg-canvas" viewBox="0 0 800 600" width="1600" height="1200" preserveAspectRatio="none" version="1.1" xmlns="http://www.w3.org/2000/svg" xmlns:xlink="http://www.w3.org/1999/xlink">
      <!--滤镜-->
      <defs></defs>
    
      <!-- 背景 -->
      <g id="background">
          <rect x="0" y="0" fill="#052b43" width="800" height="600"></rect>
          
        </g>
    
      <!--元素-->
      
              <g id="shape_JyWqvLdDFK" ref="shape_JyWqvLdDFK" key="shape_JyWqvLdDFK" mask="">
                <g transform="translate(120.00000000000006,209.8015340749966) rotate(0,96.35318656016332,80.10242622392171) scale(1,1)" style="opacity: 1;mix-blend-mode: undefined;" filter="">
                  <!--普通元素-->
                  <svg id="svg" version="1.1" width="192.70637312032665" height="160.20485244784342" viewBox="198.12477454805824 225.06982451439237 371.59589310375065 308.9231781023624" xmlns="http://www.w3.org/2000/svg" xmlns:xlink="http://www.w3.org/1999/xlink" class="style-removed" preserveAspectRatio="none" data-parent="shape_JyWqvLdDFK"><path d="M353.341 249.739 C 336.331 263.908,320.183 277.285,317.457 279.466 C 314.731 281.647,312.275 283.708,312.000 284.045 C 311.446 284.725,282.932 308.476,276.039 314.000 C 273.636 315.925,271.182 317.960,270.585 318.522 C 269.568 319.479,249.889 335.836,240.080 343.877 C 237.649 345.870,232.024 350.582,227.580 354.349 C 218.368 362.158,217.337 363.015,210.563 368.502 C 207.848 370.701,204.260 373.738,202.590 375.250 C 200.921 376.763,199.205 378.000,198.777 378.000 C 195.735 378.000,202.542 384.198,236.119 412.000 C 257.042 429.325,274.913 444.202,275.831 445.060 C 276.749 445.918,281.085 449.518,285.468 453.060 C 289.850 456.602,294.575 460.466,295.968 461.646 C 303.072 467.666,324.087 485.104,329.419 489.403 C 332.764 492.100,337.335 495.925,339.578 497.903 C 341.822 499.881,346.997 504.228,351.078 507.561 C 355.160 510.895,364.010 518.208,370.745 523.811 C 377.479 529.415,383.554 533.997,384.245 533.993 C 385.404 533.987,398.398 523.316,478.461 456.624 C 494.390 443.356,508.852 431.375,510.599 430.000 C 512.346 428.625,520.733 421.650,529.237 414.500 C 537.742 407.350,546.877 399.700,549.538 397.500 C 563.215 386.194,569.521 380.601,569.719 379.605 C 569.840 378.997,563.361 373.100,555.321 366.500 C 547.281 359.900,537.058 351.434,532.602 347.688 C 521.334 338.213,470.806 296.108,455.500 283.438 C 453.300 281.617,443.625 273.513,434.000 265.430 C 424.375 257.346,414.536 249.105,412.136 247.116 C 409.736 245.127,403.187 239.675,397.581 235.000 C 391.976 230.325,386.688 225.933,385.830 225.239 C 384.497 224.163,379.741 227.750,353.341 249.739 M372.000 342.084 L 372.000 420.168 367.750 416.866 C 365.413 415.050,360.313 410.849,356.418 407.532 C 347.278 399.748,348.691 400.936,313.730 371.631 C 297.242 357.809,282.569 345.489,281.125 344.254 L 278.500 342.008 280.536 340.254 C 281.657 339.289,297.334 326.125,315.375 311.000 C 333.416 295.875,353.386 279.113,359.754 273.750 C 366.121 268.388,371.481 264.000,371.665 264.000 C 371.849 264.000,372.000 299.138,372.000 342.084 M400.010 266.304 C 402.829 268.912,431.100 292.647,466.135 321.820 C 485.303 337.780,489.556 341.766,488.635 342.908 C 488.011 343.683,472.650 356.713,454.500 371.865 C 436.350 387.017,415.989 404.046,409.254 409.707 C 402.519 415.368,396.781 420.000,396.504 420.000 C 396.227 420.000,396.000 384.900,396.000 342.000 C 396.000 299.100,396.342 264.000,396.760 264.000 C 397.178 264.000,398.641 265.037,400.010 266.304 M265.379 360.609 C 267.645 362.593,270.625 365.203,272.000 366.408 C 273.375 367.613,282.825 375.528,293.000 383.997 C 303.175 392.466,314.687 402.119,318.582 405.448 C 322.478 408.776,326.758 412.400,328.093 413.500 C 329.429 414.600,334.342 418.646,339.011 422.491 C 343.680 426.337,347.999 429.937,348.609 430.491 C 349.219 431.046,354.957 435.775,361.360 441.000 C 370.582 448.526,372.900 450.916,372.514 452.500 C 372.246 453.600,372.021 463.650,372.014 474.834 L 372.000 495.168 367.750 491.866 C 365.413 490.050,360.303 485.849,356.395 482.532 C 352.487 479.214,344.837 472.820,339.395 468.323 C 333.953 463.825,322.525 454.346,314.000 447.257 C 305.475 440.169,290.175 427.489,280.000 419.081 C 269.825 410.672,259.286 401.934,256.579 399.661 C 253.873 397.389,249.173 393.498,246.136 391.015 C 243.098 388.532,238.902 384.925,236.811 383.000 L 233.008 379.500 246.615 368.250 C 254.099 362.063,260.455 357.000,260.740 357.000 C 261.025 357.000,263.112 358.624,265.379 360.609 M511.010 359.251 C 512.380 360.488,515.968 363.526,518.985 366.001 C 522.001 368.475,525.567 371.400,526.908 372.500 C 532.946 377.451,535.462 379.867,534.999 380.269 C 533.918 381.210,515.205 396.714,510.983 400.167 C 508.517 402.183,499.584 409.608,491.132 416.667 C 482.679 423.725,472.554 432.114,468.632 435.308 C 464.709 438.503,457.000 444.891,451.500 449.505 C 419.781 476.111,396.947 495.000,396.505 495.000 C 396.227 495.000,396.000 484.895,396.000 472.546 L 396.000 450.091 400.850 446.296 C 404.816 443.191,429.950 422.257,440.000 413.687 C 441.375 412.514,449.250 405.940,457.500 399.078 C 465.750 392.215,475.665 383.878,479.534 380.550 C 483.403 377.223,488.767 372.700,491.455 370.500 C 494.142 368.300,498.810 364.363,501.826 361.750 C 504.843 359.138,507.583 357.000,507.916 357.000 C 508.248 357.000,509.641 358.013,511.010 359.251 " stroke="none" fill="#21c0dc" fill-rule="evenodd" stroke-width="0"></path></svg>
                </g>
              </g>
              <g id="shape_9KY1cvVXuy" ref="shape_9KY1cvVXuy" key="shape_9KY1cvVXuy" mask="">
                <g transform="translate(-74.78136721400278,-172.03880413974534) rotate(0,578.3593834624135,482.0873348877865) scale(1,1)" style="opacity: 1;mix-blend-mode: undefined;" filter="">
                  <!--普通元素-->
                  <svg xmlns="http://www.w3.org/2000/svg" version="1.1" xmlns:xlink="http://www.w3.org/1999/xlink" width="1156.718766924827" height="964.174669775573" viewBox="0 0 1255.578466785656 1046.578466785656" data-ligature="true" data-parent="shape_9KY1cvVXuy"><g data-role="text" data-width="382.8189111328125" data-height="174" transform="translate(436.289233392828, 436.289233392828)"><path d="M82.51-118.16L102.82-118.16L61.85-16.76L42.39-16.76L1.42-118.16L21.73-118.16L52.12-42.89L82.51-118.16Z" transform="translate(0 133) " fill="rgb(255, 255, 255)" stroke="rgb(255, 255, 255)" stroke-width="0.242" data-glyph-w="104.24376953125001" data-glyph-h="151.536923828125" data-glyph-ascender="121.85443359375" data-glyph-descender="-29.682490234375003" data-kerning="0"></path><path d="M25.92-16.76L25.92-85.57L7.03-85.57L7.03-16.76L25.92-16.76ZM16.47-120.01Q20.95-120.01 24.14-116.81L24.14-116.81Q27.34-113.62 27.34-109.07L27.34-109.07Q27.34-104.60 24.14-101.40L24.14-101.40Q20.95-98.21 16.47-98.21L16.47-98.21Q12.00-98.21 8.81-101.40L8.81-101.40Q5.61-104.60 5.61-109.07L5.61-109.07Q5.61-113.62 8.81-116.81L8.81-116.81Q12.00-120.01 16.47-120.01L16.47-120.01Z" transform="translate(104.24376953125001 133) " fill="rgb(255, 255, 255)" stroke="rgb(255, 255, 255)" stroke-width="0.242" data-glyph-w="33.0199951171875" data-glyph-h="151.536923828125" data-glyph-ascender="121.85443359375" data-glyph-descender="-29.682490234375003" data-kerning="0"></path><path d="M23.79-53.19L23.79-53.19L23.79-16.76L4.97-16.76L4.97-85.57L23.79-85.57L23.79-82.73Q31.24-87.34 40.69-87.34L40.69-87.34Q41.83-87.34 43.03-87.27L43.03-87.27L43.03-68.03Q41.12-68.53 39.13-68.53L39.13-68.53Q32.81-68.53 28.33-64.05L28.33-64.05Q23.79-59.58 23.79-53.19Z" transform="translate(137.2637646484375 133) " fill="rgb(255, 255, 255)" stroke="rgb(255, 255, 255)" stroke-width="0.242" data-glyph-w="45.872939453125" data-glyph-h="151.536923828125" data-glyph-ascender="121.85443359375" data-glyph-descender="-29.682490234375003" data-kerning="0"></path><path d="M13.35-85.57L2.84-85.57L2.84-66.75L13.35-66.75L13.35-39.91Q13.35-30.32 20.10-23.50L20.10-23.50Q26.91-16.76 36.50-16.76L36.50-16.76L46.30-16.76L46.30-35.58L36.50-35.58Q34.72-35.58 33.45-36.85L33.45-36.85Q32.17-38.13 32.17-39.91L32.17-39.91L32.17-66.75L46.30-66.75L46.30-85.57L32.17-85.57L32.17-107.30L13.35-107.30L13.35-85.57Z" transform="translate(183.1367041015625 133) " fill="rgb(255, 255, 255)" stroke="rgb(255, 255, 255)" stroke-width="0.242" data-glyph-w="49.13943359375" data-glyph-h="151.536923828125" data-glyph-ascender="121.85443359375" data-glyph-descender="-29.682490234375003" data-kerning="0"></path><path d="M68.03-41.75L24.36-41.75Q25.42-40.19 26.77-38.84L26.77-38.84Q31.88-33.73 39.06-33.73L39.06-33.73Q47.08-33.73 52.33-39.84L52.33-39.84L68.74-30.39Q57.94-14.91 39.06-14.91L39.06-14.91Q24.07-14.91 13.49-25.56L13.49-25.56Q2.84-36.14 2.84-51.13L2.84-51.13Q2.84-66.18 13.49-76.76L13.49-76.76Q24.07-87.34 39.06-87.34L39.06-87.34Q54.11-87.34 64.69-76.76L64.69-76.76Q75.27-66.18 75.27-51.13L75.27-51.13Q75.27-46.23 73.99-41.54L73.99-41.54L68.03-41.75ZM24.43-60.57L24.43-60.57L53.68-60.57Q52.69-62.06 51.34-63.41L51.34-63.41Q46.30-68.53 39.06-68.53L39.06-68.53Q31.88-68.53 26.77-63.41L26.77-63.41Q25.42-62.06 24.43-60.57Z" transform="translate(232.27613769531249 133) " fill="rgb(255, 255, 255)" stroke="rgb(255, 255, 255)" stroke-width="0.242" data-glyph-w="78.11181640625" data-glyph-h="151.536923828125" data-glyph-ascender="121.85443359375" data-glyph-descender="-29.682490234375003" data-kerning="0"></path><path d="M36.29-39.13L50.28-16.76L72.43-16.76L50.13-52.55L70.73-85.57L48.50-85.57L36.22-65.90L23.93-85.57L1.70-85.57L22.37-52.55L0-16.76L22.23-16.76L36.29-39.13Z" transform="translate(310.3879541015625 133) " fill="rgb(255, 255, 255)" stroke="rgb(255, 255, 255)" stroke-width="0.242" data-glyph-w="72.43095703125" data-glyph-h="151.536923828125" data-glyph-ascender="121.85443359375" data-glyph-descender="-29.682490234375003" data-kerning="0"></path></g></svg>
                </g>
              </g>
    </svg>